<?xml version="1.0" encoding="utf-8"?>
<!-- Generator: Adobe Illustrator 24.0.2, SVG Export Plug-In . SVG Version: 6.00 Build 0)  -->
<svg version="1.1" id="Layer_1" xmlns="http://www.w3.org/2000/svg" xmlns:xlink="http://www.w3.org/1999/xlink" x="0px" y="0px"
	 viewBox="0 0 512 512" style="enable-background:new 0 0 512 512;" xml:space="preserve">
<style type="text/css">
	.st0{fill:#222222;}
</style>
<g>
	<path class="st0" d="M467,211h-75v179.99l27.24,0.01c-6.21,17.42-22.71,30-42.24,30h-61c-41.35,0-75,34.65-75,76v15h30v-15
		c0-24.81,20.19-46,45-46h61c36.21,0,66.51-25.81,73.48-60H467c24.81,0,45-20.19,45-45v-90C512,231.19,491.81,211,467,211L467,211z
		 M467,211"/>
	<path class="st0" d="M45,391h75V211H45c-24.81,0-45,20.19-45,45v90C0,370.81,20.19,391,45,391L45,391z M45,391"/>
	<path class="st0" d="M256,60c69.31,0,126.91,53.69,134.48,121h60.76C443.56,80.34,358.63,0,256,0S68.44,80.34,60.76,181h60.76
		C129.09,113.69,186.69,60,256,60L256,60z M256,60"/>
</g>
</svg>
