<?xml version="1.0" encoding="utf-8"?>
<!-- Generator: Adobe Illustrator 24.0.2, SVG Export Plug-In . SVG Version: 6.00 Build 0)  -->
<svg version="1.1" id="Capa_1" xmlns="http://www.w3.org/2000/svg" xmlns:xlink="http://www.w3.org/1999/xlink" x="0px" y="0px"
	 viewBox="-49 141 512 512" style="enable-background:new -49 141 512 512;" xml:space="preserve">
<path d="M303,141H111c-88.35,0-160,71.65-160,160v192c0,88.35,71.65,160,160,160h192c88.35,0,160-71.65,160-160V301
	C463,212.65,391.35,141,303,141z M415,493c0,61.76-50.24,112-112,112H111C49.24,605-1,554.76-1,493V301c0-61.76,50.24-112,112-112
	h192c61.76,0,112,50.24,112,112V493z"/>
<path d="M207,269c-70.69,0-128,57.31-128,128s57.31,128,128,128s128-57.31,128-128S277.69,269,207,269z M207,477
	c-44.1,0-80-35.9-80-80c0-44.13,35.9-80,80-80s80,35.87,80,80C287,441.1,251.1,477,207,477z"/>
<circle cx="344.6" cy="259.4" r="17.06"/>
</svg>
