<?xml version="1.0" encoding="utf-8"?>
<!-- Generator: Adobe Illustrator 24.0.2, SVG Export Plug-In . SVG Version: 6.00 Build 0)  -->
<svg version="1.1" xmlns="http://www.w3.org/2000/svg" xmlns:xlink="http://www.w3.org/1999/xlink" x="0px" y="0px"
	 viewBox="0 0 512 512" style="enable-background:new 0 0 512 512;" xml:space="preserve">
<style type="text/css">
	.st0{fill:none;}
	.st1{fill:#232323;}
</style>
<g id="Layer_2">
	<rect x="-0.05" y="-0.28" class="st0" width="512" height="512"/>
</g>
<g id="_x3C_Layer_x3E_">
	<g>
		<path class="st1" d="M286.32,210.05c-11.13,0-20.16,9.02-20.16,20.15c0,11.13,9.03,20.16,20.16,20.16
			c11.12,0,20.15-9.02,20.15-20.16C306.46,219.07,297.44,210.05,286.32,210.05z"/>
		<path class="st1" d="M106.69,210.05c-11.12,0-20.16,9.02-20.16,20.15c0,11.13,9.03,20.16,20.16,20.16
			c11.13,0,20.15-9.02,20.15-20.16C126.84,219.07,117.82,210.05,106.69,210.05z"/>
		<path class="st1" d="M407.09,210.05c-11.13,0-20.15,9.02-20.15,20.15c0,11.13,9.02,20.16,20.15,20.16
			c11.12,0,20.15-9.02,20.15-20.16C427.24,219.07,418.22,210.05,407.09,210.05z"/>
		<path class="st1" d="M431.15,40.28H80.74c-44.68,0-80.9,36.35-80.9,81.18v192.59c0,44.84,36.21,81.19,80.9,81.19h120.7l41.2,67.07
			c0,0,0.44,0.79,1.34,1.91c2.41,4.13,6.85,6.94,11.96,6.94c5.1,0,9.51-2.77,11.93-6.85c1.03-1.21,1.39-2,1.39-2l41.19-67.06h120.7
			c44.67,0,80.9-36.35,80.9-81.19V121.47C512.05,76.63,475.82,40.28,431.15,40.28z M113.6,277.93c-18.86,0-26.33-13.5-26.33-13.5
			v10.24H55.58V144.02h31.37v49.73c12.67-12.34,26.65-12.34,26.65-12.34c42.57,0,44.19,47.78,44.19,47.78
			C157.79,276.3,113.6,277.93,113.6,277.93z M212.4,190.18v84.49h-30.22v-77.34c0-26.65-14.31-26-14.31-26V141.1
			C213.7,141.1,212.4,190.18,212.4,190.18z M339.31,230.2c0,47.66-53.01,47.73-53.01,47.73c-53.49,0-51.81-47.73-51.81-47.73
			c0-48.38,51.81-48.39,51.81-48.39C341.04,181.81,339.31,230.2,339.31,230.2z M456.3,273.46c0,49.48-45.82,48.99-45.82,48.99H398.3
			v-27.78h7.55c22.19,0,19.99-22.91,19.99-22.91v-7.32c-9.74,12.67-27.54,11.95-27.54,11.95c-43.63,0-43.14-46.51-43.14-46.51
			c0-49.93,44.36-48.06,44.36-48.06c17.3,0,26.31,11.94,26.31,11.94v-8.77h30.47V273.46z"/>
	</g>
</g>
</svg>
