<?xml version="1.0" encoding="utf-8"?>
<!-- Generator: Adobe Illustrator 24.0.2, SVG Export Plug-In . SVG Version: 6.00 Build 0)  -->
<svg version="1.1" id="Layer_3" xmlns="http://www.w3.org/2000/svg" xmlns:xlink="http://www.w3.org/1999/xlink" x="0px" y="0px"
	 viewBox="0 0 512 512" style="enable-background:new 0 0 512 512;" xml:space="preserve">
<style type="text/css">
	.st0{fill:#232323;}
</style>
<g>
	<path class="st0" d="M459.58,156.99c0.2,4.5,0.29,9.01,0.29,13.61c0,138.77-105.67,298.9-298.89,298.9
		c-59.35,0-114.58-17.43-161-47.2c8.13,0.98,16.55,1.47,25.07,1.47c49.16,0,94.51-16.75,130.45-44.95
		c-46.03-0.88-84.81-31.24-98.13-72.96c6.37,1.18,12.93,1.86,19.78,1.86c9.5,0,18.8-1.27,27.62-3.72
		c-48.09-9.6-84.32-52.1-84.32-102.93v-1.37c14.2,7.83,30.46,12.63,47.6,13.12c-28.11-18.8-46.71-50.93-46.71-87.46
		c0-19.19,5.19-37.31,14.3-52.79c51.81,63.56,129.18,105.38,216.53,109.78c-1.86-7.74-2.74-15.77-2.74-23.99
		c0-57.98,47.01-104.99,105.08-104.99c30.16,0,57.49,12.73,76.68,33.1c23.9-4.7,46.42-13.42,66.69-25.46
		c-7.83,24.58-24.48,45.15-46.22,58.17c21.25-2.55,41.52-8.23,60.33-16.55C497.87,123.69,480.15,142.2,459.58,156.99z"/>
</g>
</svg>
