<?xml version="1.0" encoding="utf-8"?>
<!-- Generator: Adobe Illustrator 24.0.2, SVG Export Plug-In . SVG Version: 6.00 Build 0)  -->
<svg version="1.1" id="Layer_1" xmlns="http://www.w3.org/2000/svg" xmlns:xlink="http://www.w3.org/1999/xlink" x="0px" y="0px"
	 viewBox="0 0 512 512" style="enable-background:new 0 0 512 512;" xml:space="preserve">
<style type="text/css">
	.st0{fill:#222222;}
</style>
<path class="st0" d="M405.67,74.51H106.34C47.61,74.51,0,122.12,0,180.84v149.64c0,58.73,47.61,106.33,106.34,106.33h299.33
	C464.4,436.81,512,389.2,512,330.48V180.84C512,122.12,464.39,74.51,405.67,74.51L405.67,74.51z M333.75,262.94l-140,66.77
	c-3.74,1.78-8.05-0.94-8.05-5.07V186.92c0-4.2,4.42-6.91,8.16-5.02l140.01,70.95C338.04,254.96,337.97,260.93,333.75,262.94
	L333.75,262.94z M333.75,262.94"/>
</svg>
