<?xml version="1.0" encoding="utf-8"?>
<!-- Generator: Adobe Illustrator 27.0.1, SVG Export Plug-In . SVG Version: 6.00 Build 0)  -->
<svg version="1.1" id="Layer_1" xmlns="http://www.w3.org/2000/svg" xmlns:xlink="http://www.w3.org/1999/xlink" x="0px" y="0px"
	 viewBox="0 0 50 50" style="enable-background:new 0 0 50 50;" xml:space="preserve">
<style type="text/css">
	.st0{fill:#0D5C4C;}
	.st1{fill:#FFFFFF;}
</style>
<g>
	<circle class="st0" cx="25" cy="25" r="23.9"/>
</g>
<g>
	<g>
		<path class="st1" d="M6.3,17.9h5c2.6,0,4.3,1.4,4.3,3.9c0,2.5-1.7,4-4.5,4H7.4v6.1H6.3V17.9z M7.4,24.8h3.9c2.3,0,3.2-1.2,3.2-3
			c0-1.9-1.2-2.9-3.1-2.9H7.4V24.8z"/>
		<path class="st1" d="M18.2,24.6c0-1.7,0-2.4,0-2.7h1c0,0.3,0,1,0,2.2c0.6-1.5,1.9-2.4,3.5-2.5v1.1c-2.1,0.1-3.5,1.6-3.5,4v5.2h-1
			V24.6z"/>
		<path class="st1" d="M24.9,27c0,2.6,1.3,4.2,3.2,4.2c1.9,0,2.5-1.1,2.9-1.9h1c-0.4,1.3-1.5,2.8-3.9,2.8c-3,0-4.2-2.6-4.2-5.2
			c0-2.9,1.4-5.3,4.3-5.3c3.1,0,4.1,2.7,4.1,4.5c0,0.3,0,0.6,0,0.8H24.9z M31.2,26.1c0-2-1.1-3.5-3.1-3.5c-2.1,0-3,1.4-3.2,3.5H31.2
			z"/>
		<path class="st1" d="M34.5,21.9c1.6,4.6,2.7,7.7,3.1,9h0c0.2-0.7,1.3-3.7,3.3-9h1.1l-3.8,10H37l-3.6-10H34.5z"/>
	</g>
</g>
</svg>
