<?xml version="1.0" encoding="utf-8"?>
<!-- Generator: Adobe Illustrator 27.0.1, SVG Export Plug-In . SVG Version: 6.00 Build 0)  -->
<svg version="1.1" id="Layer_1" xmlns="http://www.w3.org/2000/svg" xmlns:xlink="http://www.w3.org/1999/xlink" x="0px" y="0px"
	 viewBox="0 0 50 50" style="enable-background:new 0 0 50 50;" xml:space="preserve">
<style type="text/css">
	.st0{fill:#58B3A2;}
	.st1{fill:#FFFFFF;}
</style>
<g>
	<circle class="st0" cx="25" cy="25" r="23.9"/>
</g>
<g>
	<g>
		<path class="st1" d="M6.3,31.9v-14h1.6c2.2,3.4,7.3,11.2,8.2,12.7h0c-0.1-2-0.1-4.1-0.1-6.4v-6.3h1.1v14h-1.5
			C13.5,28.6,8.3,20.5,7.3,19h0c0.1,1.8,0.1,3.9,0.1,6.4v6.5H6.3z"/>
		<path class="st1" d="M20.9,27c0,2.6,1.3,4.2,3.2,4.2c1.9,0,2.5-1.1,2.9-1.9h1c-0.4,1.3-1.5,2.8-3.9,2.8c-3,0-4.2-2.6-4.2-5.2
			c0-2.9,1.4-5.3,4.3-5.3c3.1,0,4.1,2.7,4.1,4.5c0,0.3,0,0.6,0,0.8H20.9z M27.2,26.1c0-2-1.1-3.5-3.1-3.5c-2.1,0-3,1.4-3.2,3.5H27.2
			z"/>
		<path class="st1" d="M30.5,21.9c1.7,2.5,2.4,3.6,2.8,4.2h0c0.5-0.7,1.5-2.1,2.9-4.2h1.1l-3.5,4.8l3.5,5.2h-1.2
			c-1.4-2.1-2.5-3.7-3-4.4h0c-0.4,0.6-1.3,1.9-2.9,4.4h-1.2l3.5-5.1l-3.4-4.9H30.5z"/>
		<path class="st1" d="M37.7,21.9h1.9v-3.1h1v3.1H43v0.9h-2.4v6.5c0,1.1,0.2,1.8,1.2,1.8c0.3,0,0.7,0,1-0.1v0.9
			C42.5,32,42,32,41.6,32c-1.3,0-2-0.6-2-2.2v-7h-1.9V21.9z"/>
	</g>
</g>
</svg>
