<?xml version="1.0" encoding="utf-8"?>
<!-- Generator: Adobe Illustrator 27.0.1, SVG Export Plug-In . SVG Version: 6.00 Build 0)  -->
<svg version="1.1" id="Layer_1" xmlns="http://www.w3.org/2000/svg" xmlns:xlink="http://www.w3.org/1999/xlink" x="0px" y="0px"
	 viewBox="0 0 186.66 159.05" style="enable-background:new 0 0 186.66 159.05;" xml:space="preserve">
<style type="text/css">
	.st0{fill:none;stroke:#666666;stroke-width:6;stroke-miterlimit:10;}
	.st1{fill:none;stroke:#666666;stroke-width:4;stroke-linecap:round;stroke-miterlimit:10;}
	.st2{fill:#FFFFFF;stroke:#666666;stroke-width:4;stroke-miterlimit:10;}
	.st3{fill:none;stroke:#666666;stroke-width:4;stroke-miterlimit:10;}
</style>
<g>
	<path class="st0" d="M93,19.94v124.71c0,0.28-0.3,0.45-0.54,0.31c-5.03-3.12-44.48-26.11-84.7-7.04C6.48,138.53,5,137.59,5,136.17
		V21.03c0-2.38,1.32-4.56,3.43-5.66C19.02,9.85,52.76-4.44,89.7,14.52C91.73,15.56,93,17.66,93,19.94z"/>
	<path class="st0" d="M93,19.18v125.16c0,0.41,0.45,0.67,0.8,0.45c6.09-3.72,46-26.31,86.2-6.01c0.46,0.23,1-0.09,1-0.61V20.28
		c0-1.9-1.04-3.64-2.71-4.53c-9.76-5.24-44.58-20.82-82.66-0.88C94.02,15.71,93,17.37,93,19.18z"/>
	<path class="st1" d="M22,43.3c0,0,26-15,54,0"/>
	<path class="st1" d="M22,61.3c0,0,26-15,54,0"/>
	<path class="st1" d="M22,79.3c0,0,26-15,54,0"/>
	<path class="st1" d="M22,97.3c0,0,26-15,54,0"/>
	<path class="st1" d="M110,43.3c0,0,26-15,54,0"/>
	<path class="st1" d="M110,61.3c0,0,26-15,54,0"/>
	<path class="st1" d="M110,79.3c0,0,26-15,54,0"/>
	<path class="st1" d="M110,97.3c0,0,26-15,54,0"/>
	<g>
		<path class="st2" d="M156.13,152.25l-50.54-60.6c-0.73-0.88-1.22-1.89-1.48-2.94c-0.07-0.09-0.12-0.19-0.14-0.31l-4.85-24.46
			c-0.08-0.38,0.29-0.69,0.66-0.56l23.74,8.78c0.2,0.07,0.36,0.2,0.46,0.36c0.87,0.43,1.67,1.05,2.33,1.85l50.54,60.6
			c2.76,3.31,2.31,8.28-1,11.04l-8.68,7.24C163.86,156.01,158.89,155.56,156.13,152.25L156.13,152.25z"/>
		<line class="st3" x1="164.64" y1="121.93" x2="145.44" y2="137.95"/>
		<line class="st1" x1="128.5" y1="91.85" x2="151.77" y2="119.76"/>
		<g>
			<line class="st1" x1="122.87" y1="72.58" x2="122.12" y2="80.89"/>
			<line class="st1" x1="113.82" y1="80.14" x2="122.12" y2="80.89"/>
		</g>
		<g>
			<line class="st1" x1="113.82" y1="80.14" x2="113.06" y2="88.45"/>
			<line class="st1" x1="104.76" y1="87.69" x2="113.06" y2="88.45"/>
		</g>
	</g>
</g>
</svg>
