<?xml version="1.0" encoding="UTF-8"?>
<svg id="Layer_1" data-name="Layer 1" xmlns="http://www.w3.org/2000/svg" viewBox="0 0 247.68 273.26">
  <defs>
    <style>
      .cls-1 {
        fill: #fff;
      }

      .cls-2, .cls-3 {
        fill: none;
        stroke: #fff;
        stroke-miterlimit: 10;
        stroke-width: 2px;
      }

      .cls-3 {
        opacity: .5;
      }
    </style>
  </defs>
  <ellipse class="cls-2" cx="123.84" cy="138.14" rx="112.08" ry="123.66" transform="translate(-43.19 218.87) rotate(-73.92)"/>
  <ellipse class="cls-3" cx="116.01" cy="136.63" rx="138.75" ry="89.66" transform="translate(-47.43 210.21) rotate(-73.9)"/>
  <g>
    <path class="cls-1" d="M149.61,76.63l-19.72,24.93,29.09,54.02h-25.5l-18.51-34.59-3.3,3.7v30.88h-22.9V76.63h22.9v35.16l27.18-35.16h10.76Z"/>
    <g>
      <path class="cls-1" d="M99.94,172.46l-9.57,29.15h-6.71l-3.96-14.78-3.93,14.78h-6.68l-9.57-29.15h11.02l5.15,17.12,4.16-17.12h6.82l4.45,17.12,5.38-17.12h3.44Z"/>
      <path class="cls-1" d="M115.33,171.7c9.64,0,14.46,5.09,14.46,15.27s-4.82,15.27-14.46,15.27-14.49-5.09-14.49-15.27,4.83-15.27,14.49-15.27Zm-.03,2.57c-2.33,0-3.5,4.23-3.5,12.69s1.17,12.69,3.5,12.69,3.53-4.23,3.53-12.69-1.18-12.69-3.53-12.69Z"/>
      <path class="cls-1" d="M155.2,183.04h-7.23c.25-1.14,.47-1.98,.67-2.52,.27-.79,.41-1.5,.41-2.14,0-1.23-.44-1.85-1.33-1.85-.67,0-1.32,.81-1.94,2.44-.62,1.63-.92,3.35-.92,5.16v17.47h-10.55v-29.15l2.05,.03c2.43,0,5.26-.26,8.5-.78v4.8c1.72-3.2,3.82-4.8,6.3-4.8,3.39,0,5.09,1.87,5.09,5.61,0,.98-.16,2.11-.49,3.38-.12,.52-.3,1.3-.55,2.34Z"/>
      <path class="cls-1" d="M185.51,172.46l-6.01,7.55,8.67,21.6h-11.13l-5.06-12.84-1.94,2.37v10.47h-10.55v-39.47c3.1,0,6.62-.21,10.55-.64v24.69l11.25-13.74h4.22Z"/>
    </g>
  </g>
</svg>