<?xml version="1.0" encoding="utf-8"?>
<!-- Generator: Adobe Illustrator 27.0.1, SVG Export Plug-In . SVG Version: 6.00 Build 0)  -->
<svg version="1.1" id="Layer_1" xmlns="http://www.w3.org/2000/svg" xmlns:xlink="http://www.w3.org/1999/xlink" x="0px" y="0px"
	 viewBox="0 0 181.89 155.25" style="enable-background:new 0 0 181.89 155.25;" xml:space="preserve">
<style type="text/css">
	.st0{fill:none;stroke:#666666;stroke-width:6;stroke-miterlimit:10;}
</style>
<g>
	<path class="st0" d="M178.89,72.02c0,38.12-39.37,69.02-87.95,69.02c-11.41,0-22.31-1.71-32.31-4.81
		c-1.48-0.46-3.09-0.22-4.38,0.63c-22.31,14.61-40.75,15.48-46.02,15.38c-0.47,0-0.64-0.61-0.25-0.86
		c12.36-8.1,17-21.52,18.66-28.62c0.43-1.86-0.2-3.8-1.63-5.07C11.31,105.53,3,89.54,3,72.02C3,33.9,42.37,3,90.95,3
		S178.9,33.9,178.89,72.02L178.89,72.02z"/>
	<circle class="st0" cx="48.27" cy="77.22" r="9.65"/>
	<circle class="st0" cx="92.8" cy="77.22" r="9.65"/>
	<circle class="st0" cx="137.33" cy="77.22" r="9.65"/>
</g>
</svg>
