<?xml version="1.0" encoding="utf-8"?>
<!-- Generator: Adobe Illustrator 27.0.1, SVG Export Plug-In . SVG Version: 6.00 Build 0)  -->
<svg version="1.1" id="Layer_1" xmlns="http://www.w3.org/2000/svg" xmlns:xlink="http://www.w3.org/1999/xlink" x="0px" y="0px"
	 viewBox="0 0 186.7 159.1" style="enable-background:new 0 0 186.7 159.1;" xml:space="preserve">
<style type="text/css">
	.st0{fill:#FFFFFF;stroke:#666666;stroke-width:6;stroke-miterlimit:10;}
	.st1{fill:none;stroke:#666666;stroke-width:4;stroke-linecap:round;stroke-miterlimit:10;}
	.st2{fill:#FFFFFF;stroke:#666666;stroke-width:4;stroke-miterlimit:10;}
	.st3{fill:none;stroke:#666666;stroke-width:4;stroke-miterlimit:10;}
</style>
<g>
	<path class="st0" d="M91,17.9v124.7c0,0.3-0.3,0.4-0.5,0.3c-5-3.1-44.5-26.1-84.7-7c-1.3,0.6-2.8-0.3-2.8-1.8V19
		c0-2.4,1.3-4.6,3.4-5.7C17,7.9,50.8-6.4,87.7,12.5C89.7,13.6,91,15.7,91,17.9z"/>
	<path class="st0" d="M91,17.2v125.2c0,0.4,0.4,0.7,0.8,0.4c6.1-3.7,46-26.3,86.2-6c0.5,0.2,1-0.1,1-0.6V18.3c0-1.9-1-3.6-2.7-4.5
		c-9.8-5.2-44.6-20.8-82.7-0.9C92,13.7,91,15.4,91,17.2z"/>
</g>
<g>
	<path class="st1" d="M20,41.3c0,0,26-15,54,0"/>
	<path class="st1" d="M20,59.3c0,0,26-15,54,0"/>
	<path class="st1" d="M20,77.3c0,0,26-15,54,0"/>
	<path class="st1" d="M20,95.3c0,0,26-15,54,0"/>
</g>
<g>
	<path class="st1" d="M108,41.3c0,0,26-15,54,0"/>
	<path class="st1" d="M108,59.3c0,0,26-15,54,0"/>
	<path class="st1" d="M108,77.3c0,0,26-15,54,0"/>
	<path class="st1" d="M108,95.3c0,0,26-15,54,0"/>
</g>
<path class="st2" d="M162.1,154.2l-50.5-60.6c-0.7-0.9-1.2-1.9-1.5-2.9c-0.1-0.1-0.1-0.2-0.1-0.3l-4.8-24.5
	c-0.1-0.4,0.3-0.7,0.7-0.6l23.7,8.8c0.2,0.1,0.4,0.2,0.5,0.4c0.9,0.4,1.7,1.1,2.3,1.8l50.5,60.6c2.8,3.3,2.3,8.3-1,11l-8.7,7.2
	C169.9,158,164.9,157.6,162.1,154.2L162.1,154.2z"/>
<line class="st3" x1="170.6" y1="123.9" x2="151.4" y2="139.9"/>
<line class="st1" x1="134.5" y1="93.8" x2="157.8" y2="121.8"/>
<g>
	<line class="st1" x1="128.9" y1="74.6" x2="128.1" y2="82.9"/>
	<line class="st1" x1="119.8" y1="82.1" x2="128.1" y2="82.9"/>
</g>
<g>
	<line class="st1" x1="119.8" y1="82.1" x2="119.1" y2="90.4"/>
	<line class="st1" x1="110.8" y1="89.7" x2="119.1" y2="90.4"/>
</g>
</svg>
