<?xml version="1.0" encoding="utf-8"?>
<!-- Generator: Adobe Illustrator 27.0.1, SVG Export Plug-In . SVG Version: 6.00 Build 0)  -->
<svg version="1.1" id="Layer_1" xmlns="http://www.w3.org/2000/svg" xmlns:xlink="http://www.w3.org/1999/xlink" x="0px" y="0px"
	 viewBox="0 0 186.3 144" style="enable-background:new 0 0 186.3 144;" xml:space="preserve">
<style type="text/css">
	.st0{fill:#FFFFFF;stroke:#666666;stroke-width:6;stroke-miterlimit:10;}
	.st1{fill:none;stroke:#666666;stroke-width:6;stroke-linecap:round;stroke-miterlimit:10;}
</style>
<path class="st0" d="M154.2,141.1H32.1c-16,0-29-13.1-29-29V32.3c0-16,13.1-29,29-29h122.1c16,0,29,13,29,29v79.8
	C183.2,128,170.1,141.1,154.2,141.1z"/>
<path class="st1" d="M19.9,112.8c0-13.2,10.8-28.2,24.1-28.2h24.2c13.2,0,24.1,14.9,24.1,28.2"/>
<line class="st1" x1="117.2" y1="51.2" x2="163.5" y2="51.2"/>
<line class="st1" x1="117.2" y1="72.4" x2="163.5" y2="72.4"/>
<line class="st1" x1="117.2" y1="93.6" x2="163.5" y2="93.6"/>
<circle class="st0" cx="56.1" cy="51.2" r="17.4"/>
</svg>
