<?xml version="1.0" encoding="utf-8"?>
<!-- Generator: Adobe Illustrator 27.0.1, SVG Export Plug-In . SVG Version: 6.00 Build 0)  -->
<svg version="1.1" id="Layer_1" xmlns="http://www.w3.org/2000/svg" xmlns:xlink="http://www.w3.org/1999/xlink" x="0px" y="0px"
	 viewBox="0 0 181.9 155.2" style="enable-background:new 0 0 181.9 155.2;" xml:space="preserve">
<style type="text/css">
	.st0{fill:#FFFFFF;stroke:#666666;stroke-width:6;stroke-miterlimit:10;}
</style>
<path class="st0" d="M178.9,72c0,38.1-39.4,69-87.9,69c-11.4,0-22.3-1.7-32.3-4.8c-1.5-0.5-3.1-0.2-4.4,0.6
	c-22.3,14.6-40.8,15.5-46,15.4c-0.5,0-0.6-0.6-0.2-0.9c12.4-8.1,17-21.5,18.7-28.6c0.4-1.9-0.2-3.8-1.6-5.1C11.3,105.5,3,89.5,3,72
	C3,33.9,42.4,3,90.9,3S178.9,33.9,178.9,72L178.9,72z"/>
<circle class="st0" cx="48.3" cy="77.2" r="9.6"/>
<circle class="st0" cx="92.8" cy="77.2" r="9.7"/>
<circle class="st0" cx="137.3" cy="77.2" r="9.6"/>
</svg>
